tugOfWar_states
nRows=33
nColumns=19

# SIMM Motion File Header:
name tugOfWar_states
datacolumns 19
datarows 33
otherdata 1
range 0.00000000 0.04539166
endheader
time	blockToGround_xRotation	blockToGround_yRotation	blockToGround_zRotation	blockToGround_xTranslation	blockToGround_yTranslation	blockToGround_zTranslation	blockToGround_xRotation_u	blockToGround_yRotation_u	blockToGround_zRotation_u	blockToGround_xTranslation_u	blockToGround_yTranslation_u	blockToGround_zTranslation_u	Liu.activation	Liu.fiber_length	Liu.active_motor_units	Liu.fatigued_motor_units	Thelen.activation	Thelen.fiber_length
      0.00000000	      0.00000000	      0.00000000	      0.00000000	      0.00000000	      0.00000000	      0.00000000	      0.00000000	      0.00000000	      0.00000000	      0.00000000	      0.00000000	      0.00000000	      0.00000000	      0.10000000	      0.00000000	      0.00000000	      0.00000000	      0.10000000
      0.00057371	      0.00000000	     -0.00000000	      0.00000000	     -0.00000000	     -0.00000147	     -0.00000002	      0.00000000	     -0.00000000	      0.00000000	     -0.00000000	     -0.00487658	     -0.00005810	     -0.00053518	      0.10000380	     -0.00053518	      0.00000000	     -0.00053518	      0.10000380
      0.00135847	     -0.00000000	     -0.00000000	     -0.00000000	     -0.00000000	     -0.00000725	     -0.00000010	     -0.00000000	     -0.00000000	      0.00000000	     -0.00000000	     -0.00952159	     -0.00014459	      0.00104863	      0.09999850	      0.00104863	      0.00000000	      0.00104863	      0.09999850
      0.00214323	     -0.00000000	     -0.00000000	     -0.00000000	     -0.00000000	     -0.00001596	     -0.00000025	     -0.00000000	     -0.00000000	      0.00000000	     -0.00000000	     -0.01241714	     -0.00024984	      0.00104808	      0.09999477	      0.00104808	      0.00000000	      0.00104808	      0.09999483
      0.00470509	     -0.00000000	     -0.00000000	     -0.00000000	     -0.00000000	     -0.00005250	     -0.00000153	     -0.00000000	     -0.00000000	      0.00000000	     -0.00000000	     -0.01492947	     -0.00082204	      0.00104715	      0.09998640	      0.00104715	      0.00000000	      0.00104715	      0.09998723
      0.00541056	     -0.00000000	     -0.00000000	     -0.00000000	     -0.00000000	     -0.00006293	     -0.00000220	     -0.00000000	     -0.00000000	     -0.00000000	     -0.00000000	     -0.01459639	     -0.00106957	      0.00103945	      0.09998468	      0.00103945	      0.00000000	      0.00103945	      0.09998598
      0.00732773	     -0.00000000	     -0.00000000	     -0.00000000	     -0.00000000	     -0.00008937	     -0.00000509	     -0.00000000	     -0.00000000	     -0.00000000	     -0.00000000	     -0.01285068	     -0.00201323	      0.00228845	      0.09995735	      0.00228845	      0.00000000	      0.00228845	      0.09996189
      0.00924490	     -0.00000000	     -0.00000000	     -0.00000000	     -0.00000000	     -0.00011194	     -0.00001031	     -0.00000000	     -0.00000000	     -0.00000000	     -0.00000000	     -0.01068438	     -0.00351138	      0.00228724	      0.09994115	      0.00228724	      0.00000000	      0.00228724	      0.09994984
      0.01110023	     -0.00000000	     -0.00000000	     -0.00000000	     -0.00000000	     -0.00012986	     -0.00001844	     -0.00000000	     -0.00000000	     -0.00000000	     -0.00000000	     -0.00867240	     -0.00526333	      0.00228677	      0.09992894	      0.00228677	      0.00000000	      0.00228677	      0.09994513
      0.01174010	     -0.00000000	     -0.00000000	     -0.00000000	     -0.00000000	     -0.00013521	     -0.00002200	     -0.00000000	     -0.00000000	     -0.00000000	     -0.00000000	     -0.00803427	     -0.00585898	      0.00229781	      0.09992494	      0.00229781	      0.00000000	      0.00229781	      0.09994471
      0.01356298	     -0.00000000	     -0.00000000	     -0.00000000	     -0.00000000	     -0.00014832	     -0.00003409	     -0.00000000	     -0.00000000	     -0.00000000	     -0.00000000	     -0.00640733	     -0.00735444	      0.00341498	      0.09989921	      0.00341498	      0.00000000	      0.00341498	      0.09993307
      0.01538586	     -0.00000000	     -0.00000000	     -0.00000000	     -0.00000000	     -0.00015874	     -0.00004857	     -0.00000000	     -0.00000000	     -0.00000000	     -0.00000000	     -0.00506425	     -0.00847059	      0.00341403	      0.09987485	      0.00341403	      0.00000000	      0.00341403	      0.09992685
      0.01708975	     -0.00000000	     -0.00000000	     -0.00000000	     -0.00000000	     -0.00016647	     -0.00006365	     -0.00000000	     -0.00000000	     -0.00000000	     -0.00000000	     -0.00404336	     -0.00917888	      0.00339942	      0.09985515	      0.00339942	      0.00000000	      0.00339942	      0.09992800
      0.01798438	     -0.00000000	     -0.00000000	     -0.00000000	     -0.00000000	     -0.00016988	     -0.00007198	     -0.00000000	     -0.00000000	     -0.00000000	     -0.00000000	     -0.00358747	     -0.00944686	      0.00303189	      0.09984419	      0.00303189	      0.00000000	      0.00303189	      0.09992918
      0.01920124	     -0.00000000	     -0.00000000	     -0.00000000	     -0.00000000	     -0.00017390	     -0.00008366	     -0.00000000	     -0.00000000	     -0.00000000	     -0.00000000	     -0.00304521	     -0.00968652	      0.00390804	      0.09982068	      0.00390804	      0.00000000	      0.00390804	      0.09992975
      0.02041811	     -0.00000000	     -0.00000000	     -0.00000000	     -0.00000000	     -0.00017732	     -0.00009559	     -0.00000000	     -0.00000000	     -0.00000000	     -0.00000000	     -0.00258219	     -0.00992047	      0.00406481	      0.09980479	      0.00406481	      0.00000000	      0.00406481	      0.09993191
      0.02135153	     -0.00000000	     -0.00000000	     -0.00000000	     -0.00000000	     -0.00017958	     -0.00010492	     -0.00000000	     -0.00000000	     -0.00000000	     -0.00000000	     -0.00227409	     -0.01005519	      0.00369850	      0.09979144	      0.00369850	      0.00000000	      0.00369850	      0.09993327
      0.02261105	     -0.00000000	     -0.00000000	     -0.00000000	     -0.00000000	     -0.00018221	     -0.00011767	     -0.00000000	     -0.00000000	     -0.00000000	     -0.00000000	     -0.00191470	     -0.01016149	      0.00453181	      0.09976670	      0.00453181	      0.00000000	      0.00453181	      0.09993468
      0.02334278	     -0.00000000	     -0.00000000	     -0.00000000	     -0.00000000	     -0.00018355	     -0.00012514	     -0.00000000	     -0.00000000	     -0.00000000	     -0.00000000	     -0.00173215	     -0.01024075	      0.00334253	      0.09975460	      0.00334253	      0.00000000	      0.00334253	      0.09993356
      0.02407452	     -0.00000000	     -0.00000000	     -0.00000000	     -0.00000000	     -0.00018475	     -0.00013265	     -0.00000000	     -0.00000000	     -0.00000000	     -0.00000000	     -0.00156678	     -0.01030409	      0.00635835	      0.09973107	      0.00635835	      0.00000000	      0.00635835	      0.09992446
      0.02480626	     -0.00000000	     -0.00000000	     -0.00000000	     -0.00000000	     -0.00018584	     -0.00014022	     -0.00000000	     -0.00000000	     -0.00000000	     -0.00000000	     -0.00141699	     -0.01037910	      0.00635727	      0.09971264	      0.00635727	      0.00000000	      0.00635727	      0.09991919
      0.02846494	     -0.00000000	     -0.00000000	     -0.00000000	     -0.00000000	     -0.00018992	     -0.00017878	     -0.00000000	     -0.00000000	     -0.00000000	     -0.00000000	     -0.00085617	     -0.01067190	      0.00635351	      0.09964251	      0.00635351	      0.00000000	      0.00635351	      0.09991742
      0.03168173	     -0.00000000	     -0.00000000	     -0.00000000	     -0.00000000	     -0.00019214	     -0.00021337	     -0.00000000	     -0.00000000	      0.00000000	     -0.00000000	     -0.00054916	     -0.01082011	      0.00635242	      0.09959691	      0.00635242	      0.00000000	      0.00635242	      0.09993454
      0.03226836	     -0.00000000	     -0.00000000	     -0.00000000	     -0.00000000	     -0.00019245	     -0.00021973	     -0.00000000	     -0.00000000	      0.00000000	     -0.00000000	     -0.00050642	     -0.01083838	      0.00621681	      0.09958902	      0.00621681	      0.00000000	      0.00621681	      0.09993837
      0.03331228	     -0.00000000	     -0.00000000	     -0.00000000	     -0.00000000	     -0.00019294	     -0.00023106	     -0.00000000	     -0.00000000	      0.00000000	     -0.00000000	     -0.00043840	     -0.01086926	      0.00698082	      0.09957173	      0.00698082	      0.00000000	      0.00698082	      0.09994281
      0.03435619	     -0.00000000	     -0.00000000	     -0.00000000	     -0.00000000	     -0.00019337	     -0.00024242	     -0.00000000	     -0.00000000	      0.00000000	     -0.00000000	     -0.00037949	     -0.01090009	      0.00698059	      0.09955479	      0.00698059	      0.00000000	      0.00698059	      0.09994748
      0.03506873	     -0.00000000	     -0.00000000	     -0.00000000	     -0.00000000	     -0.00019363	     -0.00025019	     -0.00000000	     -0.00000000	      0.00000000	     -0.00000000	     -0.00034389	     -0.01092027	      0.00697158	      0.09954394	      0.00697158	      0.00000000	      0.00697158	      0.09995139
      0.03700985	     -0.00000000	     -0.00000000	     -0.00000000	     -0.00000000	     -0.00019421	     -0.00027144	     -0.00000000	     -0.00000000	      0.00000000	     -0.00000000	     -0.00026290	     -0.01098559	      0.00824837	      0.09950301	      0.00824837	      0.00000000	      0.00824837	      0.09995221
      0.03895098	     -0.00000000	     -0.00000000	     -0.00000000	     -0.00000000	     -0.00019466	     -0.00029284	     -0.00000000	     -0.00000000	      0.00000000	     -0.00000000	     -0.00020094	     -0.01106838	      0.00824710	      0.09946573	      0.00824710	      0.00000000	      0.00824710	      0.09995651
      0.04084262	     -0.00000000	     -0.00000000	     -0.00000000	     -0.00000000	     -0.00019500	     -0.00031385	     -0.00000000	     -0.00000000	      0.00000000	     -0.00000000	     -0.00015461	     -0.01114409	      0.00824660	      0.09943526	      0.00824660	      0.00000000	      0.00824660	      0.09996593
      0.04149830	     -0.00000000	     -0.00000000	     -0.00000000	     -0.00000000	     -0.00019509	     -0.00032117	     -0.00000000	     -0.00000000	      0.00000000	     -0.00000000	     -0.00014118	     -0.01116712	      0.00825178	      0.09942554	      0.00825178	      0.00000000	      0.00825178	      0.09997008
      0.04344498	     -0.00000000	     -0.00000000	     -0.00000000	     -0.00000000	     -0.00019533	     -0.00034297	     -0.00000000	     -0.00000000	      0.00000000	     -0.00000000	     -0.00010777	     -0.01124137	      0.00949692	      0.09938579	      0.00949692	      0.00000000	      0.00949692	      0.09997318
      0.04539166	     -0.00000000	     -0.00000000	     -0.00000000	     -0.00000000	     -0.00019552	     -0.00036493	     -0.00000000	     -0.00000000	      0.00000000	     -0.00000000	     -0.00008223	     -0.01132798	      0.00949573	      0.09934912	      0.00949573	      0.00000000	      0.00949573	      0.09997908
